<svg id="Group_761" data-name="Group 761" xmlns="http://www.w3.org/2000/svg" width="180" height="204.484" viewBox="0 0 180 204.484">
  <ellipse id="Ellipse_4" data-name="Ellipse 4" cx="1.53" cy="27.215" rx="1.53" ry="27.215" transform="translate(65.823 204.397) rotate(-89.908)" fill="#e6e6e6"/>
  <path id="Path_22" data-name="Path 22" d="M417.443,253.3a69.57,69.57,0,1,1,49.193-20.377A69.57,69.57,0,0,1,417.443,253.3Zm0-138.585a69.015,69.015,0,1,0,69.015,69.015A69.093,69.093,0,0,0,417.443,114.712Z" transform="translate(-327.838 -105.133)" fill="#e6e6e6"/>
  <rect id="Rectangle_180" data-name="Rectangle 180" width="5.28" height="18.278" transform="translate(45.492 80.839)" fill="#b67f4e"/>
  <path id="Path_23" data-name="Path 23" d="M54.259,304.986,41.417,289.708l-25.779.236L0,305.175l.316.2H.2V337.06H54.225V305.378Z" transform="translate(0 -209.308)" fill="#b67f4e"/>
  <path id="Path_24" data-name="Path 24" d="M107.519,289.825l-16.044,18.81v28.51h28.839V305.057Z" transform="translate(-66.089 -209.393)" fill="#fac18e"/>
  <rect id="Rectangle_181" data-name="Rectangle 181" width="5.89" height="5.206" transform="translate(36.962 111.986)" fill="#3f3d56"/>
  <rect id="Rectangle_182" data-name="Rectangle 182" width="5.89" height="5.123" transform="translate(36.962 102.975)" fill="#3f3d56"/>
  <rect id="Rectangle_183" data-name="Rectangle 183" width="5.89" height="5.206" transform="translate(36.962 111.986)" fill="#fff"/>
  <rect id="Rectangle_184" data-name="Rectangle 184" width="5.89" height="5.123" transform="translate(36.962 102.975)" fill="#fff"/>
  <rect id="Rectangle_185" data-name="Rectangle 185" width="5.89" height="5.206" transform="translate(10.788 110.604)" fill="#3f3d56"/>
  <rect id="Rectangle_186" data-name="Rectangle 186" width="5.89" height="5.123" transform="translate(10.788 101.594)" fill="#3f3d56"/>
  <rect id="Rectangle_187" data-name="Rectangle 187" width="5.89" height="5.206" transform="translate(10.788 110.604)" fill="#fff"/>
  <rect id="Rectangle_188" data-name="Rectangle 188" width="5.89" height="5.123" transform="translate(10.788 101.594)" fill="#fff"/>
  <rect id="Rectangle_189" data-name="Rectangle 189" width="5.28" height="18.278" transform="translate(129.228 0.439)" fill="#b67f4e"/>
  <path id="Path_25" data-name="Path 25" d="M453.121,15.67v50h54.022v-50h-.113l.316-.2L491.707.236,465.929,0,453.086,15.278Z" transform="translate(-327.345)" fill="#b67f4e"/>
  <path id="Path_26" data-name="Path 26" d="M453.211,15.349v50.4h28.839V18.927L466.005.117Z" transform="translate(-327.436 -0.085)" fill="#fac18e"/>
  <rect id="Rectangle_190" data-name="Rectangle 190" width="5.89" height="5.206" transform="translate(137.148 31.586)" fill="#3f3d56"/>
  <rect id="Rectangle_191" data-name="Rectangle 191" width="5.89" height="5.123" transform="translate(137.148 22.575)" fill="#3f3d56"/>
  <rect id="Rectangle_192" data-name="Rectangle 192" width="5.89" height="5.206" transform="translate(137.148 31.586)" fill="#fff"/>
  <rect id="Rectangle_193" data-name="Rectangle 193" width="5.89" height="5.123" transform="translate(137.148 22.575)" fill="#fff"/>
  <rect id="Rectangle_194" data-name="Rectangle 194" width="5.89" height="5.206" transform="translate(163.322 30.204)" fill="#3f3d56"/>
  <rect id="Rectangle_195" data-name="Rectangle 195" width="5.89" height="5.123" transform="translate(163.322 21.194)" fill="#3f3d56"/>
  <rect id="Rectangle_196" data-name="Rectangle 196" width="5.89" height="5.206" transform="translate(163.322 30.204)" fill="#fff"/>
  <rect id="Rectangle_197" data-name="Rectangle 197" width="5.89" height="5.123" transform="translate(163.322 21.194)" fill="#fff"/>
  <rect id="Rectangle_198" data-name="Rectangle 198" width="5.89" height="5.206" transform="translate(137.148 49.901)" fill="#fff"/>
  <rect id="Rectangle_199" data-name="Rectangle 199" width="5.89" height="5.123" transform="translate(137.148 40.891)" fill="#fff"/>
  <rect id="Rectangle_200" data-name="Rectangle 200" width="5.89" height="5.206" transform="translate(163.322 48.52)" fill="#fff"/>
  <rect id="Rectangle_201" data-name="Rectangle 201" width="5.89" height="5.123" transform="translate(163.322 39.51)" fill="#fff"/>
  <circle id="Ellipse_5" data-name="Ellipse 5" cx="8.489" cy="8.489" r="8.489" transform="translate(84.32 41.459)" fill="#b67f4e"/>
  <path id="Path_27" data-name="Path 27" d="M578.705,288.957l14.454-.229c-1.243-3.426-1.782-6.633-.918-9.406l-11.013-1.147Q583.461,283.565,578.705,288.957Z" transform="translate(-494.615 -223.638)" fill="#b67f4e"/>
  <path id="Path_28" data-name="Path 28" d="M519.947,424.1l2.4,6.4a3.876,3.876,0,0,1-3.16,5.208h0a3.876,3.876,0,0,1-4.342-4l.284-7.383,2.065-37.855L525.682,389Z" transform="translate(-448.475 -301.881)" fill="#b67f4e"/>
  <path id="Path_29" data-name="Path 29" d="M287.389,522.264l6.883-.688,6.195-60.11,8.718,61.257,6.424-.23,1.606-67.222H286.471Z" transform="translate(-206.969 -328.924)"/>
  <path id="Path_30" data-name="Path 30" d="M595.171,232.031s-2.294,5.047-3.9,5.277-4.359,2.753-3.9,3.9.229,4.589-4.359,4.13-4.359-.918-4.359-.918-7.342-14,.229-17.666S593.106,225.836,595.171,232.031Z" transform="translate(-492.267 -185.295)"/>
  <path id="Path_31" data-name="Path 31" d="M647.294,765.171l-.276,5.791s4.2,6.555-1.036,6.555h0c-3.789-.012-7.214,1.693-6.766-2.069l.633-5.313,1.1-5.791Z" transform="translate(-538.305 -574.886)"/>
  <path id="Path_32" data-name="Path 32" d="M562.25,765.171l.276,5.791s-4.2,6.555,1.036,6.555h0c3.789-.012,7.214,1.693,6.766-2.069l-.633-5.313-1.1-5.791Z" transform="translate(-481.773 -574.886)"/>
  <path id="Path_33" data-name="Path 33" d="M539.534,374.837l34.185-1.606c-6.375-20.459-6.423-37.2,1.606-52.614a8.254,8.254,0,0,0-4.988-7.58l-9.925-4.275-12.619.688-8.326,4.579a9.912,9.912,0,0,0-5.122,9.191C541.635,340.622,542.051,357.781,539.534,374.837Z" transform="translate(-462.556 -245.736)" fill="#e6e6e6"/>
  <path id="Path_34" data-name="Path 34" d="M525.824,342.084l-19.043-3.212,3.137-7.789a20.526,20.526,0,0,1,12.425-11.762l1.874-.638Z" transform="translate(-442.651 -252.904)" fill="#e6e6e6"/>
  <path id="Path_35" data-name="Path 35" d="M703.267,311.429l5.862-2.442a4.418,4.418,0,0,0,2.038-6.434h0a4.418,4.418,0,0,0-7.09-.522l-4.35,5.067-17.049,12.235-11.59-4.811-1.381,9.613,14.48,3.771Z" transform="translate(-560.362 -239.761)" fill="#b67f4e"/>
  <path id="Path_36" data-name="Path 36" d="M654.736,341l9.436-8.881-2.5-3.053c-2.232-5.542-7.365-7.822-13.021-9.747l-1.874-.638-1.479,15.1Z" transform="translate(-542.728 -252.904)" fill="#e6e6e6"/>
</svg>
